<!-- MailBot mascot favicon: standalone colours (no CSS context). Source of truth for the mark: icons-src/brand/mailbot.svg -->
<svg viewBox="0 0 250 250" fill="none" xmlns="http://www.w3.org/2000/svg">
<!-- light plate under the body: visible only through the face window, so the eyes read on dark tabs too -->
<rect x="50" y="50" width="160" height="100" rx="24" fill="#e5e5e5"/><path d="M225.992 133.65c-.68-5.88-1.12-12.11-.98-18.02.09-4 .38-7.98.86-11.95.19-1.66 1.09-5.71.89-7.09-1.65-11.4-3.36-23.37-9.08-33.58-14.93-26.68-49.62-30.98-77.14-32.34-8.09-.4-16.86-.6-24.9-.27-24.34.77-57.77 3.04-75.55 21.95-9.06 9.63-13.29 22.57-15.11 35.41-.22 1.57-1.15 7.19-1.04 8.5.21 2.24.85 5.93 1.13 8.39.62 5.49.89 11.01.79 16.53-.07 5.18-.45 10.36-1.14 15.5-.24 1.77-1.28 6.55-1.18 8.1 1.18 16.87 5.1 35.25 18.12 47.13 14.59 13.38 35.26 17.45 54.36 19.23q6.915.69 13.86.99c6.16.23 12.1.12 18.14.29 3.23 2.86 4.63 3.99 8.81 5.52 5.21 1.55 10.49 2.17 15.97 1.64 5.85-.57 12.93-2.01 16.95-6.72.88-1.03.92-3.53 2.3-4.22 1.69-.56 4-.98 5.76-1.42 2.79-.71 5.55-1.53 8.28-2.47 18.21-6.26 31.67-17.8 36.89-36.77 2.16-7.86 3.72-17.87 4.11-26.23.11-2.24-1.1-5.73-1.1-8.1m-31.15 49.11c-.04.18-.1.15-.3.23-.77-.14-1.37-.78-1.83-1.39-1.49-1.97-2.77-3.98-4.55-5.72-10.88 14.04-26.1 20.92-42.72 25.74-1.96.51-3.94.97-5.93 1.38-3.17.64-11.09 2.92-11.74-2.25-.7-5.39 4.09-5.32 7.8-5.99 15.91-2.91 35.99-10.65 45.64-24.42-.95-.49-2.27-.93-2.51-2.02.06-.53.15-.57.5-1 .39-.04.62-.05 1.01.06 5.3 1.39 10.12 5.51 12.92 10.16.7 1.17 2.05 3.73 1.71 5.22m2.71-46.65c-13.17 13.79-48.05 17.31-66.43 17.76l-.75.03c-20.97.69-61.06-2.02-76.7-16.79-7.19-6.79-8.95-24.39-9.24-33.86-.35-11.22.42-34 8.65-42.67 2.94-3.09 6.74-5.35 10.57-7.19 16.41-7.87 37.54-9.65 55.59-10.04l.49-.02c21.36-.76 60.98 1.99 77.02 17.09 1.31 1.23 2.47 2.62 3.35 4.19 4.38 7.79 5.72 21.75 5.98 30.54.31 10.54-.87 32.92-8.53 40.96" fill="#355ff5"></path><path d="M194.842 182.761c-.04.18-.1.15-.3.23-.77-.14-1.37-.78-1.83-1.39-1.49-1.97-2.77-3.98-4.55-5.72-10.88 14.04-26.1 20.92-42.72 25.74-1.96.51-3.94.97-5.93 1.38-3.17.64-11.09 2.92-11.74-2.25-.7-5.39 4.09-5.32 7.8-5.99 15.91-2.91 35.99-10.65 45.64-24.42-.95-.49-2.27-.93-2.51-2.02.06-.53.15-.57.5-1 .39-.04.62-.05 1.01.06 5.3 1.39 10.12 5.51 12.92 10.16.7 1.17 2.05 3.73 1.71 5.22" fill="#355ff5"></path><path d="M101.492 106.48c-8.25 1.27-15.96-4.38-17.23-12.63-1.27-8.24 4.36-15.95 12.6-17.25v.03c8.25-1.3 15.98 4.35 17.25 12.6 1.27 8.24-4.38 15.98-12.62 17.25m50.63 4.97c-11.75 1.26-22.31-7.23-23.62-18.96-1.32-11.75 7.11-22.35 18.84-23.73 11.83-1.4 22.53 7.11 23.85 18.95 1.32 11.83-7.24 22.49-19.07 23.74" fill="#1a307a"></path><path d="M229.942 97.64c.59-.02 1.18-.04 1.78-.04 15.36-.12 21.6 17.85 16.58 30.34-1.17 2.93-2.61 4.97-4.83 7.19-3.91 3.68-8.36 4.59-13.56 4.48-2.27-10.44-2.44-24.09-1.19-34.74.23-1.98.63-5.36 1.23-7.22h-.01zm-212.62.07c1.21-.12 2.48-.05 3.69.06.56 2.14 1.07 6.36 1.27 8.59.89 10.01 1.07 23.4-1.08 33.26-5.27.09-8.1 0-12.6-2.75-.59-.4-1.15-.83-1.69-1.29-8.79-7.43-9.04-23.63-1.64-32.05 3.52-4.01 6.9-5.41 12.06-5.81h-.01z" fill="#355ff5"></path><path d="M194.842 182.75c-.04.19-.1.16-.3.24-.76-.15-1.37-.78-1.83-1.39-1.49-1.97-2.76-3.99-4.55-5.73-10.87 14.04-26.1 20.92-42.71 25.74-1.97.51-3.94.97-5.93 1.38-3.18.63-11.09 2.92-11.74-2.25-.69-5.39 4.09-5.32 7.81-6 15.9-2.9 35.98-10.65 45.63-24.42-.95-.49-2.27-.93-2.51-2.02.06-.53.15-.57.5-1h-.01c.4-.04.64-.05 1.03.06 5.29 1.39 10.12 5.51 12.92 10.16.7 1.17 2.05 3.73 1.71 5.22z" fill="#e5e5e5"></path></svg>
